<svg width="172" height="300" viewBox="0 0 172 300" version="1.1" xmlns="http://www.w3.org/2000/svg" xmlns:xlink="http://www.w3.org/1999/xlink" xmlns:figma="http://www.figma.com/figma/ns">
<title>Tabboush</title>
<desc>Created using Figma</desc>
<g id="Canvas" transform="translate(463 400)" figma:type="canvas">
<g id="Tabboush" figma:type="frame">
<g id="Body" figma:type="frame">
<g id="Body" figma:type="ellipse">
<use xlink:href="#path0_fill" transform="translate(-463 -400)" fill="#F2C94C"/>
</g>
<g id="Left Foot" figma:type="ellipse">
<use xlink:href="#path1_fill" transform="translate(-435 -249)" fill="#F2C94C"/>
</g>
<g id="Right Foot" figma:type="ellipse">
<use xlink:href="#path1_fill" transform="translate(-338 -249)" fill="#F2C94C"/>
</g>
</g>
<g id="Group" figma:type="frame">
<g id="Eye" figma:type="ellipse">
<use xlink:href="#path2_fill" transform="translate(-414 -345)" fill="#383838"/>
</g>
<g id="Eye" figma:type="ellipse">
<use xlink:href="#path2_fill" transform="translate(-362 -345)" fill="#383838"/>
</g>
</g>
</g>
</g>
<defs>
<path id="path0_fill" d="M 172 86C 172 133.496 133.496 172 86 172C 38.5035 172 0 133.496 0 86C 0 38.5035 38.5035 0 86 0C 133.496 0 172 38.5035 172 86Z"/>
<path id="path1_fill" d="M 21 10.5C 21 16.299 16.299 21 10.5 21C 4.70101 21 0 16.299 0 10.5C 0 4.70101 4.70101 0 10.5 0C 16.299 0 21 4.70101 21 10.5Z"/>
<path id="path2_fill" d="M 18 9C 18 13.9706 13.9706 18 9 18C 4.02944 18 0 13.9706 0 9C 0 4.02944 4.02944 0 9 0C 13.9706 0 18 4.02944 18 9Z"/>
</defs>
</svg>
